<svg t="1708509039598" class="icon" viewBox="0 0 1024 1024" version="1.1"
  xmlns="http://www.w3.org/2000/svg" p-id="5864" width="200" height="200">
  <path
    d="M970.538517 242.856075C798.798419 25.465933 437.101322 16.061054 215.103059 161.122556c-221.890471 145.196242-267.917787 528.990763-157.457618 677.312982 72.759809 97.605937 289.341509 167.051133 418.395853 85.937419 3.853575-2.371431 43.521145-38.993868 40.853285-42.631859-80.008842-107.307245-101.35172-222.88755 13.231506-297.830153 114.610174-74.969552 272.36422-48.722124 352.346115 58.719861 2.775652 3.63799 14.767547 7.949683 19.456512 7.949683 154.789758 0.13474 144.145267-312.085686 68.609805-407.724414zM128.491937 527.939788c0-44.410432 38.427959-80.46696 85.856575-80.46696s85.883523 36.056528 85.883524 80.46696c0 44.356536-38.454907 80.386115-85.883524 80.386115-47.482513 0.026948-85.856575-36.02958-85.856575-80.386115z m151.636833 248.380431c-33.280876-0.269481-60.040317-25.735414-59.743888-56.887392 0.269481-31.151978 27.513987-56.267586 60.767915-55.971157 33.280876 0.296429 60.040317 25.762362 59.743888 56.860444-0.296429 31.151978-27.540935 56.240638-60.767915 55.998105z m90.868917-333.078239c-73.217927 0-132.557594-55.593884-132.557593-124.20369s59.339667-124.176741 132.557593-124.176741c73.217927 0 132.557594 55.566936 132.557594 124.176741 0.026948 68.582857-59.393563 124.20369-132.557594 124.20369z m277.107082-83.323456c-47.428617 0-85.856575-36.056528-85.856575-80.440011s38.427959-80.440012 85.856575-80.440012c47.482513 0 85.910471 36.056528 85.910471 80.440012s-38.427959 80.440012-85.910471 80.440011z m192.840443 49.422774c-33.22698 0-60.202005-25.277297-60.202005-56.537066 0-31.098082 26.975026-56.456223 60.202005-56.456223 33.253928 0 60.228953 25.277297 60.228954 56.456223 0 31.25977-26.975026 56.537067-60.228954 56.537066z"
    p-id="5865"></path>
</svg>