<svg t="1712558961615" class="icon" viewBox="0 0 1024 1024" version="1.1"
  xmlns="http://www.w3.org/2000/svg" p-id="21841" width="200" height="200">
  <path
    d="M320 32c0-17.68-14.32-32-32-32h-64c-17.68 0-32 14.32-32 32v160H32c-17.68 0-32 14.32-32 32v64c0 17.68 14.32 32 32 32h160v448c0 35.34 28.66 64 64 64h384v-128H320V32z m672 672h-160V256c0-35.34-28.66-64-64-64H384v128h320v672c0 17.68 14.32 32 32 32h64c17.68 0 32-14.32 32-32v-160h160c17.68 0 32-14.32 32-32v-64c0-17.68-14.32-32-32-32z"
    p-id="21842"></path>
</svg>