<svg t="1700815056541" class="icon" viewBox="0 0 1024 1024" version="1.1"
  xmlns="http://www.w3.org/2000/svg" p-id="17009" width="200" height="200">
  <path
    d="M281.6 819.2c-42.3424 0-76.8-34.4576-76.8-76.8S239.2576 665.6 281.6 665.6s76.8 34.4576 76.8 76.8S323.9424 819.2 281.6 819.2z m0-102.4a25.6 25.6 0 1 0 0 51.2 25.6 25.6 0 0 0 0-51.2zM281.6 614.4c-42.3424 0-76.8-34.4576-76.8-76.8S239.2576 460.8 281.6 460.8 358.4 495.2576 358.4 537.6 323.9424 614.4 281.6 614.4z m0-102.4a25.6 25.6 0 1 0 0 51.2 25.6 25.6 0 0 0 0-51.2zM281.6 409.6C239.2576 409.6 204.8 375.1424 204.8 332.8S239.2576 256 281.6 256 358.4 290.4576 358.4 332.8 323.9424 409.6 281.6 409.6z m0-102.4a25.6 25.6 0 1 0 0 51.2 25.6 25.6 0 0 0 0-51.2zM691.2 409.6c-42.3424 0-76.8-34.4576-76.8-76.8S648.8576 256 691.2 256s76.8 34.4576 76.8 76.8S733.5424 409.6 691.2 409.6z m0-102.4a25.6 25.6 0 1 0 0 51.2 25.6 25.6 0 0 0 0-51.2zM691.2 614.4c-42.3424 0-76.8-34.4576-76.8-76.8S648.8576 460.8 691.2 460.8s76.8 34.4576 76.8 76.8-34.4576 76.8-76.8 76.8z m0-102.4a25.6 25.6 0 1 0 0 51.2 25.6 25.6 0 0 0 0-51.2zM691.2 819.2c-42.3424 0-76.8-34.4576-76.8-76.8s34.4576-76.8 76.8-76.8 76.8 34.4576 76.8 76.8-34.4576 76.8-76.8 76.8z m0-102.4a25.6 25.6 0 1 0 0 51.2 25.6 25.6 0 0 0 0-51.2z"
    fill="" p-id="17010"></path>
  <path
    d="M793.6 972.8h-614.4A128.1536 128.1536 0 0 1 51.2 844.8v-614.4C51.2 159.8464 108.6464 102.4 179.2 102.4h614.4C864.1536 102.4 921.6 159.8464 921.6 230.4v614.4c0 70.5536-57.4464 128-128 128zM179.2 153.6C136.8576 153.6 102.4 188.0576 102.4 230.4v614.4c0 42.3424 34.4576 76.8 76.8 76.8h614.4c42.3424 0 76.8-34.4576 76.8-76.8v-614.4c0-42.3424-34.4576-76.8-76.8-76.8h-614.4z"
    fill="" p-id="17011"></path>
</svg>