<?xml version="1.0" encoding="utf-8"?>
<svg t="1700815056541" class="icon" viewBox="0 0 1024 1024" version="1.1" p-id="17009" width="200" height="200" xmlns="http://www.w3.org/2000/svg">
  <path d="M 303.6 819.2 C 261.258 819.2 226.8 784.742 226.8 742.4 C 226.8 700.058 261.258 665.6 303.6 665.6 C 345.942 665.6 380.4 700.058 380.4 742.4 C 380.4 784.742 345.942 819.2 303.6 819.2 Z M 303.6 716.8 C 283.893 716.8 271.576 738.133 281.43 755.2 C 286.003 763.121 294.454 768 303.6 768 C 323.307 768 335.624 746.667 325.77 729.6 C 321.197 721.679 312.746 716.8 303.6 716.8 Z M 303.6 614.4 C 261.258 614.4 226.8 579.942 226.8 537.6 C 226.8 495.258 261.258 460.8 303.6 460.8 C 345.942 460.8 380.4 495.258 380.4 537.6 C 380.4 579.942 345.942 614.4 303.6 614.4 Z M 303.6 512 C 283.893 512 271.576 533.333 281.43 550.4 C 286.003 558.321 294.454 563.2 303.6 563.2 C 323.307 563.2 335.624 541.867 325.77 524.8 C 321.197 516.879 312.746 512 303.6 512 Z M 303.6 409.6 C 261.258 409.6 226.8 375.142 226.8 332.8 C 226.8 290.458 261.258 256 303.6 256 C 345.942 256 380.4 290.458 380.4 332.8 C 380.4 375.142 345.942 409.6 303.6 409.6 Z M 303.6 307.2 C 283.893 307.2 271.576 328.533 281.43 345.6 C 286.003 353.521 294.454 358.4 303.6 358.4 C 323.307 358.4 335.624 337.067 325.77 320 C 321.197 312.079 312.746 307.2 303.6 307.2 Z M 713.2 409.6 C 670.858 409.6 636.4 375.142 636.4 332.8 C 636.4 290.458 670.858 256 713.2 256 C 755.542 256 790 290.458 790 332.8 C 790 375.142 755.542 409.6 713.2 409.6 Z M 713.2 307.2 C 693.493 307.2 681.176 328.533 691.03 345.6 C 695.603 353.521 704.054 358.4 713.2 358.4 C 732.907 358.4 745.224 337.067 735.37 320 C 730.797 312.079 722.346 307.2 713.2 307.2 Z M 713.2 614.4 C 670.858 614.4 636.4 579.942 636.4 537.6 C 636.4 495.258 670.858 460.8 713.2 460.8 C 755.542 460.8 790 495.258 790 537.6 C 790 579.942 755.542 614.4 713.2 614.4 Z M 713.2 512 C 693.493 512 681.176 533.333 691.03 550.4 C 695.603 558.321 704.054 563.2 713.2 563.2 C 732.907 563.2 745.224 541.867 735.37 524.8 C 730.797 516.879 722.346 512 713.2 512 Z M 713.2 819.2 C 670.858 819.2 636.4 784.742 636.4 742.4 C 636.4 700.058 670.858 665.6 713.2 665.6 C 755.542 665.6 790 700.058 790 742.4 C 790 784.742 755.542 819.2 713.2 819.2 Z M 713.2 716.8 C 693.493 716.8 681.176 738.133 691.03 755.2 C 695.603 763.121 704.054 768 713.2 768 C 732.907 768 745.224 746.667 735.37 729.6 C 730.797 721.679 722.346 716.8 713.2 716.8 Z" fill="" p-id="17010"/>
  <path d="M 815.6 972.8 L 201.2 972.8 C 130.543 972.715 73.285 915.457 73.2 844.8 L 73.2 230.4 C 73.2 159.846 130.646 102.4 201.2 102.4 L 815.6 102.4 C 886.154 102.4 943.6 159.846 943.6 230.4 L 943.6 844.8 C 943.6 915.354 886.154 972.8 815.6 972.8 Z M 201.2 153.6 C 158.858 153.6 124.4 188.058 124.4 230.4 L 124.4 844.8 C 124.4 887.142 158.858 921.6 201.2 921.6 L 815.6 921.6 C 857.942 921.6 892.4 887.142 892.4 844.8 L 892.4 230.4 C 892.4 188.058 857.942 153.6 815.6 153.6 L 201.2 153.6 Z" fill="" p-id="17011"/>
</svg>