<?xml version="1.0" encoding="UTF-8" standalone="no"?>
<svg
  t="1715222571751"
  class="icon"
  viewBox="0 0 1024 1024"
  version="1.1"
  p-id="12502"
  width="200"
  height="200"
  id="svg73"
  sodipodi:docname="explode.svg"
  inkscape:version="1.2.2 (b0a84865, 2022-12-01)"
  xmlns:inkscape="http://www.inkscape.org/namespaces/inkscape"
  xmlns:sodipodi="http://sodipodi.sourceforge.net/DTD/sodipodi-0.dtd"
  xmlns="http://www.w3.org/2000/svg"
  xmlns:svg="http://www.w3.org/2000/svg">
  <defs
    id="defs77" />
  <sodipodi:namedview
    id="namedview75"
    pagecolor="#ffffff"
    bordercolor="#000000"
    borderopacity="0.25"
    inkscape:showpageshadow="2"
    inkscape:pageopacity="0.0"
    inkscape:pagecheckerboard="0"
    inkscape:deskcolor="#d1d1d1"
    showgrid="false"
    inkscape:zoom="5.135"
    inkscape:cx="99.902629"
    inkscape:cy="100"
    inkscape:window-width="1394"
    inkscape:window-height="1207"
    inkscape:window-x="3105"
    inkscape:window-y="167"
    inkscape:window-maximized="0"
    inkscape:current-layer="svg73" />
  <path
    d="m 426.87709,340.75155 -82.75527,-85.18496 -3.11,-2.72126 a 23.03347,23.03347 0 0 0 -36.39677,20.02066 l 8.89267,165.36476 -207.78717,-75.75776 -3.8875,-1.06907 c -21.86722,-4.22766 -37.174272,23.85957 -19.388935,39.84693 l 148.988645,133.633 -75.95214,37.56302 -3.59594,2.18672 c -14.38377,10.59345 -11.66252,34.01568 6.3172,40.23568 l 70.75259,24.34551 -127.12142,72.69635 -3.450163,2.38109 c -16.619085,13.55768 -6.414384,42.32522 16.619083,40.57584 l 200.69247,-15.55002 -9.4758,185.77417 0.14578,4.22766 c 2.3811,20.21503 29.73942,27.94144 41.93647,9.81595 l 94.3206,-140.43613 65.2129,74.10557 2.81844,2.72125 a 23.03347,23.03347 0 0 0 36.93131,-13.26611 l 12.39142,-59.52743 117.25688,94.70935 3.25579,2.23532 a 23.03347,23.03347 0 0 0 33.62692,-25.26879 l -18.8544,-82.85246 221.19905,102.9703 3.74173,1.40923 c 22.20737,6.46297 39.89552,-22.49894 21.42987,-39.3124 l -169.10648,-153.79944 150.93239,-83.77574 3.40157,-2.28391 c 15.50143,-12.29423 8.74689,-38.68068 -12.34283,-40.77021 l -138.20081,-13.60627 139.95019,-116.77094 2.81844,-2.81844 c 13.60627,-15.64721 0.19438,-41.45053 -21.67284,-37.51443 l -203.12216,36.49396 71.23854,-180.76901 1.16625,-3.79031 c 4.47063,-20.26363 -19.6805,-36.44537 -36.9799,-22.54754 L 591.36716,345.95109 583.59215,96.956366 c -0.7775,-24.394097 -34.06426,-30.954262 -44.02599,-8.6497 L 426.92569,340.75155 Z m 113.80672,-142.08832 6.07423,194.9098 0.48594,3.9361 c 3.25579,16.42471 23.22784,24.3455 36.9313,13.3147 l 106.66343,-85.86527 -54.52226,138.39519 -1.11766,3.59594 c -3.40157,15.55002 10.10751,30.46833 26.58082,27.5041 l 158.17287,-28.47597 -115.26453,96.26435 -2.86704,2.76985 a 23.03347,23.03347 0 0 0 15.35565,37.80599 l 119.39501,11.7597 -114.43844,63.60931 -3.49876,2.3325 a 23.03347,23.03347 0 0 0 -0.82609,34.79317 l 81.15167,73.71683 -126.92705,-58.9929 -3.45016,-1.31203 a 23.03347,23.03347 0 0 0 -28.67035,27.30972 l 14.48096,63.85228 -94.80654,-76.63245 -3.20719,-2.18672 a 23.03347,23.03347 0 0 0 -33.8213,15.40424 l -10.69064,51.31507 -54.42508,-61.85993 -3.15859,-3.01282 a 23.03347,23.03347 0 0 0 -33.18958,5.34532 l -64.72697,96.21576 6.56017,-128.9194 -0.14578,-4.08188 a 23.03347,23.03347 0 0 0 -24.58847,-20.02065 l -124.78893,9.62158 82.41512,-47.13601 3.40156,-2.28391 a 23.03347,23.03347 0 0 0 -7.28907,-39.40958 l -66.67072,-22.98488 56.95196,-28.18441 3.69313,-2.23532 a 23.03347,23.03347 0 0 0 1.45781,-35.47348 l -85.57371,-76.82683 128.67643,46.89303 3.59594,0.97188 a 23.03347,23.03347 0 0 0 27.26113,-23.81097 l -7.48344,-138.92972 63.6579,65.60165 c 11.32235,11.66252 30.90566,8.16376 37.51442,-6.70595 l 85.62231,-191.94558 z"
    fill="#2b2f33"
    p-id="12503"
    id="path71"
    style="stroke-width:1.13892" />
</svg>