<svg t="1714994185307" class="icon" viewBox="0 0 1024 1024" version="1.1"
    xmlns="http://www.w3.org/2000/svg" p-id="30904" width="200" height="200">
    <path
        d="M170.666667 682.666667v170.666666h170.666666v85.333334H85.333333v-256h85.333334z m768 0v256h-256v-85.333334h170.666666v-170.666666h85.333334zM341.333333 85.333333v85.333334H170.666667v170.666666H85.333333V85.333333h256z m597.333334 0v256h-85.333334V170.666667h-170.666666V85.333333h256zM340.053333 758.613333c-26.453333-11.52-51.2-25.173333-74.666666-41.813333 55.04-85.333333 149.333333-136.533333 250.88-136.533333 102.4 0 192.853333 51.626667 246.613333 130.133333-23.04 17.066667-47.786667 31.573333-73.386667 43.946667-40.106667-55.466667-104.533333-88.32-172.8-88.32-73.386667-0.426667-138.24 36.266667-176.64 92.586666zM512 537.6c-82.346667 0-149.333333-66.986667-149.333333-149.333333s66.986667-149.333333 149.333333-149.333334 149.333333 66.986667 149.333333 149.333334-66.986667 149.333333-149.333333 149.333333z"
        p-id="30905"></path>
</svg>