<svg t="1697357679730" class="icon" viewBox="0 0 1024 1024" version="1.1"
  xmlns="http://www.w3.org/2000/svg" p-id="42362" width="200" height="200">
  <path
    d="M886.857143 146.285714h-64V64A27.355429 27.355429 0 0 0 795.428571 36.571429H118.857143A27.355429 27.355429 0 0 0 91.428571 64v310.857143c0 15.213714 12.214857 27.428571 27.428572 27.428571h676.571428a27.355429 27.355429 0 0 0 27.428572-27.428571V219.428571h36.571428v228.571429H458.313143a45.714286 45.714286 0 0 0-45.714286 45.714286v155.428571h-50.322286A9.142857 9.142857 0 0 0 353.133714 658.285714v260.608l0.219429 2.194286a95.963429 95.963429 0 1 0 191.780571 6.948571c0-2.413714-0.073143-4.754286-0.219428-7.021714 0.146286-0.731429 0.219429-1.389714 0.219428-2.194286V658.285714a9.142857 9.142857 0 0 0-9.142857-9.142857h-50.249143v-128h401.115429c25.234286 0 45.714286-20.48 45.714286-45.714286V192A45.714286 45.714286 0 0 0 886.857143 146.285714zM749.714286 329.142857h-585.142857v-219.428571h585.142857v219.428571z m-277.723429 598.893714c0 12.507429-10.24 22.820571-22.820571 22.820572a22.893714 22.893714 0 0 1-22.893715-22.893714V722.358857h45.714286v205.750857z"
    fill="#000000" p-id="42363"></path>
</svg>