<svg t="1694750866215" class="icon" viewBox="0 0 1024 1024" version="1.1"
  xmlns="http://www.w3.org/2000/svg" p-id="5701" width="200" height="200">
  <path
    d="M836.266667 896H187.733333c-12.8 0-21.333333-8.533333-21.333333-21.333333V512c0-12.8 8.533333-21.333333 21.333333-21.333333h648.533334c12.8 0 21.333333 8.533333 21.333333 21.333333v362.666667c0 12.8-8.533333 21.333333-21.333333 21.333333zM209.066667 853.333333h605.866666V533.333333H209.066667v320z"
    fill="#333333" p-id="5702"></path>
  <path
    d="M917.333333 533.333333H106.666667c-12.8 0-21.333333-8.533333-21.333334-21.333333V290.133333c0-12.8 8.533333-21.333333 21.333334-21.333333h262.4V149.333333c0-12.8 8.533333-21.333333 21.333333-21.333333h243.2c12.8 0 21.333333 8.533333 21.333333 21.333333v119.466667H917.333333c12.8 0 21.333333 8.533333 21.333334 21.333333V512c0 12.8-8.533333 21.333333-21.333334 21.333333zM128 490.666667h768v-179.2H633.6c-12.8 0-21.333333-8.533333-21.333333-21.333334V170.666667h-200.533334v119.466666c0 12.8-8.533333 21.333333-21.333333 21.333334H128V490.666667zM349.866667 896c-12.8 0-21.333333-8.533333-21.333334-21.333333v-200.533334c0-12.8 8.533333-21.333333 21.333334-21.333333s21.333333 8.533333 21.333333 21.333333V874.666667c0 12.8-8.533333 21.333333-21.333333 21.333333z"
    fill="#333333" p-id="5703"></path>
</svg>