<svg t="1687779772549" class="icon" viewBox="0 0 1024 1024" version="1.1"
  xmlns="http://www.w3.org/2000/svg" p-id="12570" xmlns:xlink="http://www.w3.org/1999/xlink"
  width="200" height="200">
  <path
    d="M588.59952 768l0 73.152q0 14.848-10.848 25.728t-25.728 10.848l-292.576 0q-14.848 0-25.728-10.848t-10.848-25.728l0-73.152q0-14.848 10.848-25.728t25.728-10.848l36.576 0 0-219.424-36.576 0q-14.848 0-25.728-10.848t-10.848-25.728l0-73.152q0-14.848 10.848-25.728t25.728-10.848l219.424 0q14.848 0 25.728 10.848t10.848 25.728l0 329.152 36.576 0q14.848 0 25.728 10.848t10.848 25.728zM515.44752 109.728l0 109.728q0 14.848-10.848 25.728t-25.728 10.848l-146.272 0q-14.848 0-25.728-10.848t-10.848-25.728l0-109.728q0-14.848 10.848-25.728t25.728-10.848l146.272 0q14.848 0 25.728 10.848t10.848 25.728z"
    p-id="12571"></path>
</svg>