<svg t="1702535153719" class="icon" viewBox="0 0 1024 1024" version="1.1"
  xmlns="http://www.w3.org/2000/svg" p-id="10241" width="200" height="200">
  <path
    d="M332.8 204.8L221.866667 264.533333l64-110.933333L221.866667 42.666667l110.933333 64L443.733333 42.666667 384 153.6l64 110.933333c-4.266667 0-115.2-59.733333-115.2-59.733333zM870.4 640l110.933333-64-64 110.933333 64 110.933334-110.933333-64-110.933333 64 64-110.933334-64-110.933333 110.933333 64zM981.333333 42.666667l-64 110.933333L981.333333 264.533333l-110.933333-64-110.933333 64 64-110.933333L759.466667 42.666667l110.933333 64L981.333333 42.666667z m-388.266666 482.133333l110.933333-110.933333-93.866667-93.866667-110.933333 110.933333 93.866667 93.866667zM640 277.333333L746.666667 384c17.066667 17.066667 17.066667 46.933333 0 64L221.866667 968.533333c-17.066667 17.066667-46.933333 17.066667-64 0l-106.666667-106.666666c-17.066667-17.066667-17.066667-46.933333 0-64L576 277.333333c17.066667-17.066667 46.933333-17.066667 64 0z"
    p-id="10242"></path>
</svg>