<svg t="1693105565351" class="icon" viewBox="0 0 1024 1024" version="1.1"
  xmlns="http://www.w3.org/2000/svg" p-id="17273" width="200" height="200">
  <path d="M478.72 73.142857c-41.837714 0-71.533714 28.964571-86.235429 65.024H146.285714V885.76h265.947429V950.857143H877.714286V430.738286h-66.56v-292.571429H565.101714C550.326857 102.107429 520.630857 73.142857 478.72 73.142857z m0 65.024c18.505143 0 33.28 14.482286 33.28 32.475429v32.548571h99.766857v65.024H345.746286v-65.097143h99.766857v-32.475428c0-17.993143 14.774857-32.475429 33.206857-32.475429z m-265.947429 65.024h66.56v130.048h398.921143V203.190857h66.486857v227.474286H412.233143v390.144H212.845714V203.190857z m265.947429 292.571429h332.507429v390.070857H478.72V495.762286z" fill="#000000" fill-opacity=".65" p-id="17274"></path>
</svg>