<svg t="1695288539702" class="icon" viewBox="0 0 1024 1024" version="1.1"
  xmlns="http://www.w3.org/2000/svg" p-id="10035" width="200" height="200">
  <path
    d="M906.666667 554.666667a32 32 0 0 1 31.701333 27.648l0.298667 4.352v213.333333a138.666667 138.666667 0 0 1-130.773334 138.453333L800 938.666667h-199.168c22.912-16.426667 41.557333-38.4 53.973333-63.957334l145.194667-0.042666a74.666667 74.666667 0 0 0 74.410667-68.565334l0.256-6.101333v-213.333333a32 32 0 0 1 32-32z m-405.333334-170.666667A138.666667 138.666667 0 0 1 640 522.666667v277.333333A138.666667 138.666667 0 0 1 501.333333 938.666667h-277.333333A138.666667 138.666667 0 0 1 85.333333 800v-277.333333A138.666667 138.666667 0 0 1 224 384h277.333333z m-172.032 356.394667l-4.352 3.882666L198.997333 870.4c7.808 2.816 16.213333 4.309333 25.002667 4.309333h277.333333c8.789333 0 17.194667-1.493333 25.045334-4.266666l-125.994667-126.08a53.333333 53.333333 0 0 0-66.474667-7.253334l-4.608 3.328zM501.333333 448h-277.333333a74.666667 74.666667 0 0 0-74.666667 74.666667v277.333333c0 8.789333 1.536 17.194667 4.266667 25.045333l126.122667-125.994666a117.333333 117.333333 0 0 1 160.042666-5.504l5.888 5.504 126.037334 125.994666c2.816-7.850667 4.309333-16.256 4.309333-25.045333v-277.333333a74.666667 74.666667 0 0 0-74.666667-74.666667zM469.333333 512a42.666667 42.666667 0 1 1 0 85.333333 42.666667 42.666667 0 0 1 0-85.333333z m330.666667-426.666667a138.666667 138.666667 0 0 1 138.453333 130.816L938.666667 224v213.333333a32 32 0 0 1-63.701334 4.352l-0.298666-4.352v-213.333333a74.666667 74.666667 0 0 0-68.522667-74.410667L800 149.333333h-213.333333a32 32 0 0 1-4.352-63.701333L586.666667 85.333333h213.333333z m-362.666667 0a32 32 0 0 1 4.352 63.701334l-4.352 0.298666h-213.333333a74.666667 74.666667 0 0 0-74.410667 68.522667L149.333333 224v145.152c-25.557333 12.458667-47.530667 31.146667-64 54.016V224a138.666667 138.666667 0 0 1 130.816-138.453333L224 85.333333h213.333333z"
    fill="#212121" p-id="10036"></path>
</svg>